# xmcd CD database file
# Copyright (C) 1993-1998 Ti Kan
#
# Track frame offsets:
#	150
#	16055
#	29907
#	48377
#	61532
#	73537
#	83695
#	95002
#	106325
#	116885
#	129265
#	137965
#	148865
#	162012
#	177695
#	188672
#	200005
#	219905
#	233055
#	249002
#
# Disc length: 3457 seconds
#
# Revision: 1
# Processed by: cddbd v1.4b41PL1 Copyright (c) Steve Scherf et al.
# Submitted via: QuintessentialCD v1.0 (c) 1998 Paul Quinn
#
DISCID=180d7f14
DTITLE=John Lee Hooker - The Very Best Of John Lee Hooker (2)
DYEAR=1900
DGENRE=
TTITLE0=Dirty Ground Hog
TTITLE1=Hobo Blues (a.k.a. The Hobo)
TTITLE2=Tupelo
TTITLE3=I'm Going Upstairs
TTITLE4=I'm Mad Again
TTITLE5=Want Ad Blues
TTITLE6=What Do You Say
TTITLE7=Boom Boom
TTITLE8=She's Mine
TTITLE9=Drug Store Woman
TTITLE10=You Know I Love You
TTITLE11=Send Me Your Pillow
TTITLE12=Don't Look Back
TTITLE13=One Way Ticket
TTITLE14=Bottle Up An Go
TTITLE15=This Is Hip
TTITLE16=Half A Stranger
TTITLE17=Birmingham Blues
TTITLE18=It Serves Me Right To Suffer
TTITLE19=Big Legs, Tight Skirt
EXTD=
EXTT0=
EXTT1=
EXTT2=
EXTT3=
EXTT4=
EXTT5=
EXTT6=
EXTT7=
EXTT8=
EXTT9=
EXTT10=
EXTT11=
EXTT12=
EXTT13=
EXTT14=
EXTT15=
EXTT16=
EXTT17=
EXTT18=
EXTT19=
PLAYORDER=
